<?xml version="1.0" standalone="no"?>
<!DOCTYPE svg PUBLIC "-//W3C//DTD SVG 20010904//EN"
 "http://www.w3.org/TR/2001/REC-SVG-20010904/DTD/svg10.dtd">
<svg version="1.0" xmlns="http://www.w3.org/2000/svg"
 width="500.000000pt" height="500.000000pt" viewBox="0 0 500.000000 500.000000"
 preserveAspectRatio="xMidYMid meet">
<metadata>
Created by potrace 1.11, written by Peter Selinger 2001-2013
</metadata>
<g transform="translate(0.000000,500.000000) scale(0.100000,-0.100000)"
fill="#000000" stroke="none">
<path d="M0 2500 l0 -2500 2500 0 2500 0 0 2500 0 2500 -2500 0 -2500 0 0
-2500z m3349 1486 c38 -20 51 -55 51 -141 0 -88 -12 -119 -54 -137 -34 -14
-145 -17 -188 -5 -42 11 -63 59 -63 147 0 82 17 123 58 140 36 14 165 12 196
-4z m-1576 -438 c43 -23 47 -57 47 -448 0 -470 2 -465 -150 -464 -87 1 -136
21 -146 59 -8 30 -15 31 -40 4 -66 -73 -223 -85 -342 -28 -57 28 -152 116
-192 179 -96 150 -94 356 7 507 46 70 125 140 193 172 108 50 259 37 329 -28
l30 -28 12 29 c20 49 80 70 174 61 33 -3 68 -10 78 -15z m472 2 c23 -9 34 -25
49 -72 5 -16 8 -15 32 7 95 88 222 103 352 43 60 -28 153 -120 185 -184 52
-102 57 -139 57 -399 0 -229 -1 -244 -21 -268 -37 -49 -164 -61 -237 -23 -46
24 -52 57 -52 285 0 182 -2 210 -19 241 -26 50 -70 73 -138 72 -63 0 -93 -17
-130 -72 -22 -32 -23 -42 -23 -244 0 -181 -3 -216 -18 -246 -22 -45 -73 -64
-159 -57 -70 5 -109 25 -124 64 -6 16 -9 177 -7 418 3 443 0 425 82 444 45 11
130 6 171 -9z m1105 -5 c16 -8 34 -24 40 -34 6 -13 10 -162 10 -411 0 -440 0
-441 -68 -459 -86 -24 -191 -7 -220 37 -15 24 -17 62 -17 417 0 360 1 393 18
418 10 16 28 32 40 37 37 15 165 12 197 -5z m442 -595 c52 -15 75 -49 83 -123
8 -77 -6 -135 -41 -168 -22 -21 -37 -24 -107 -27 -141 -5 -181 32 -181 169 0
88 16 122 67 144 38 17 127 19 179 5z m-908 -520 c42 -16 66 -66 66 -138 0
-73 -19 -125 -52 -143 -26 -14 -148 -18 -191 -6 -45 12 -67 60 -67 144 0 86
14 121 55 139 35 16 153 18 189 4z m-1449 -425 c93 -24 164 -60 174 -89 13
-34 -3 -86 -42 -138 -41 -54 -64 -57 -161 -24 -80 28 -135 32 -185 15 -24 -8
-31 -17 -29 -32 5 -32 48 -56 123 -67 239 -36 338 -124 339 -299 1 -214 -123
-312 -394 -314 -104 -1 -176 13 -259 50 -88 38 -121 68 -121 109 0 39 26 96
65 143 37 43 73 41 180 -11 72 -34 96 -41 144 -41 63 1 101 15 101 38 0 21
-26 32 -126 54 -168 36 -261 95 -305 194 -20 43 -24 69 -24 148 0 89 2 99 30
145 35 56 95 97 175 118 74 20 240 20 315 1z m585 -6 c43 -9 55 -17 72 -45
l20 -34 31 24 c64 48 113 66 179 66 132 0 188 -40 188 -133 0 -57 -33 -139
-68 -171 -22 -19 -24 -19 -180 1 -52 6 -94 -10 -127 -49 l-25 -30 0 -236 c0
-169 -4 -244 -13 -262 -38 -76 -229 -82 -281 -9 -14 21 -16 69 -16 414 0 368
1 392 19 422 29 46 106 62 201 42z m897 -32 l28 -27 3 -385 c3 -433 2 -444
-62 -470 -81 -34 -206 -10 -233 45 -19 37 -18 785 1 819 23 42 53 52 148 49
81 -3 90 -5 115 -31z m449 -590 c40 -21 54 -60 54 -149 0 -120 -40 -159 -162
-157 -130 1 -168 37 -168 162 0 133 38 170 170 164 43 -2 88 -11 106 -20z"/>
<path d="M1311 3249 c-101 -21 -155 -146 -98 -229 68 -102 210 -97 265 10 27
54 27 82 3 137 -30 65 -97 97 -170 82z"/>
</g>
</svg>
