<svg width="37" height="37" viewBox="0 0 37 37" fill="none" xmlns="http://www.w3.org/2000/svg">
<path d="M33.6387 34.1143C31.853 35.6882 28.9173 36.1709 24.2178 36.1709H14.9697C19.5125 34.0252 23.6297 31.1272 27.1572 27.6328L33.6387 34.1143ZM12.0264 35.7646C11.6871 35.901 11.3445 36.0304 11.001 36.1582C2.11794 35.9911 0.169926 33.6756 0.169922 24.2188V19.4941C4.69624 18.7238 8.7806 16.6571 12.0264 13.6875V35.7646ZM26.0586 26.5342C22.271 30.2849 17.7812 33.3275 12.8027 35.4453V13.2773L26.0586 26.5342ZM36.1699 24.2188C36.1699 28.849 35.7018 31.7666 34.1826 33.5596L27.7031 27.0801C31.1817 23.511 34.0579 19.3535 36.1699 14.7705V24.2188ZM35.4141 12.624C33.3376 17.6332 30.3287 22.1567 26.6045 25.9814L13.2471 12.624H35.4141ZM10.8877 12.624C7.93503 15.2954 4.24983 17.1705 0.169922 17.916V12.624H10.8877ZM11.3711 11.8467H2.3252C4.39523 11.0374 6.26486 9.82876 7.84082 8.31641L11.3711 11.8467ZM24.2178 0.170898C33.5696 0.170898 35.9383 2.07541 36.1514 10.708C36.0146 11.0897 35.8759 11.4701 35.7285 11.8467H13.8291C16.6642 8.6174 18.6242 4.60253 19.3428 0.170898H24.2178ZM12.0264 11.4033L8.38867 7.76562C9.9798 6.09165 11.2299 4.09073 12.0264 1.87305V11.4033ZM6.74219 7.21777C4.926 8.95334 2.68142 10.2428 0.183594 10.915C0.265629 6.91207 0.790975 4.3287 2.22559 2.70117L6.74219 7.21777ZM17.7666 0.170898C17.0766 4.13596 15.3209 7.73467 12.8027 10.6602V0.170898H17.7666ZM10.9287 0.183594C10.262 2.64803 8.99378 4.86523 7.29004 6.66699L2.78027 2.15723C4.41397 0.772877 6.98239 0.263369 10.9287 0.183594Z" fill="#27272A"/>
</svg>
