<svg width="121" height="36" viewBox="0 0 121 36" fill="none" xmlns="http://www.w3.org/2000/svg">
<path d="M33.4678 33.9434C31.6821 35.5173 28.7464 36 24.0469 36H14.7988C19.3416 33.8543 23.4588 30.9563 26.9863 27.4619L33.4678 33.9434ZM11.8555 35.5938C11.5162 35.7301 11.1736 35.8595 10.8301 35.9873C1.94704 35.8202 3.73249e-06 33.5047 0 24.0479V19.3232C4.52594 18.5527 8.60992 16.486 11.8555 13.5166V35.5938ZM25.8877 26.3633C22.1001 30.114 17.6103 33.1566 12.6318 35.2744V13.1064L25.8877 26.3633ZM35.999 24.0479C35.999 28.6781 35.5309 31.5957 34.0117 33.3887L27.5322 26.9092C31.0108 23.3401 33.887 19.1826 35.999 14.5996V24.0479ZM35.2432 12.4531C33.1667 17.4623 30.1578 21.9858 26.4336 25.8105L13.0762 12.4531H35.2432ZM10.7168 12.4531C7.76436 15.1243 4.07953 16.9995 0 17.7451V12.4531H10.7168ZM11.2002 11.6758H2.1543C4.22433 10.8665 6.09396 9.65786 7.66992 8.14551L11.2002 11.6758ZM24.0469 0C33.3987 0 35.7674 1.90451 35.9805 10.5371C35.8437 10.9188 35.705 11.2992 35.5576 11.6758H13.6582C16.4933 8.4465 18.4533 4.43163 19.1719 0H24.0469ZM11.8555 11.2324L8.21777 7.59473C9.8089 5.92075 11.059 3.91983 11.8555 1.70215V11.2324ZM6.57129 7.04688C4.75511 8.78245 2.51052 10.0719 0.0126953 10.7441C0.0947306 6.74117 0.620077 4.1578 2.05469 2.53027L6.57129 7.04688ZM17.5957 0C16.9057 3.96506 15.15 7.56377 12.6318 10.4893V0H17.5957ZM10.7578 0.0126953C10.0911 2.47713 8.82288 4.69433 7.11914 6.49609L2.60938 1.98633C4.24307 0.601979 6.81149 0.0924701 10.7578 0.0126953Z" fill="#27272A"/>
<g clip-path="url(#clip0_365_8)">
<path d="M48.924 18.256C47.676 18.256 46.7054 17.8987 46.012 17.184C45.3294 16.4587 44.988 15.4187 44.988 14.064V6.624H47.26V14.256C47.26 14.896 47.404 15.3867 47.692 15.728C47.98 16.0693 48.3907 16.24 48.924 16.24C49.4574 16.24 49.868 16.0693 50.156 15.728C50.444 15.3867 50.588 14.896 50.588 14.256V6.624H52.86V14.064C52.86 15.4187 52.5134 16.4587 51.82 17.184C51.1374 17.8987 50.172 18.256 48.924 18.256ZM54.9018 18V15.952H57.3818V8.688H54.9018V6.64H62.1338V8.688H59.6538V15.952H62.1338V18H54.9018ZM77.8013 18.256C76.9373 18.256 76.2013 18.0907 75.5933 17.76C74.9853 17.4293 74.5106 16.96 74.1693 16.352C73.8386 15.744 73.6413 15.0133 73.5773 14.16L75.8653 14.048C75.9293 14.528 76.0519 14.9333 76.2333 15.264C76.4146 15.5947 76.6439 15.84 76.9213 16C77.1986 16.16 77.5293 16.24 77.9133 16.24C78.2546 16.24 78.5426 16.192 78.7773 16.096C79.0226 16 79.2093 15.8613 79.3373 15.68C79.4653 15.488 79.5293 15.2587 79.5293 14.992C79.5293 14.704 79.4599 14.448 79.3213 14.224C79.1826 14 78.9373 13.7973 78.5853 13.616C78.2439 13.4347 77.7586 13.264 77.1293 13.104C76.3719 12.912 75.7426 12.6827 75.2413 12.416C74.7506 12.1493 74.3879 11.808 74.1533 11.392C73.9186 10.976 73.8013 10.4533 73.8013 9.824C73.8013 9.13067 73.9506 8.528 74.2493 8.016C74.5586 7.49333 75.0013 7.09333 75.5773 6.816C76.1639 6.528 76.8733 6.384 77.7053 6.384C78.5159 6.384 79.2093 6.53333 79.7853 6.832C80.3613 7.13067 80.8093 7.56267 81.1293 8.128C81.4599 8.69333 81.6519 9.38133 81.7053 10.192L79.4013 10.304C79.3479 9.90933 79.2466 9.568 79.0973 9.28C78.9479 8.992 78.7453 8.77333 78.4893 8.624C78.2439 8.47467 77.9506 8.4 77.6093 8.4C77.1506 8.4 76.7826 8.51733 76.5053 8.752C76.2386 8.98667 76.1053 9.30667 76.1053 9.712C76.1053 9.97867 76.1693 10.208 76.2973 10.4C76.4359 10.592 76.6706 10.7627 77.0013 10.912C77.3426 11.0613 77.8066 11.216 78.3933 11.376C79.2573 11.5787 79.9399 11.8453 80.4413 12.176C80.9426 12.5067 81.2999 12.896 81.5133 13.344C81.7266 13.792 81.8333 14.3147 81.8333 14.912C81.8333 15.5947 81.6733 16.1867 81.3533 16.688C81.0333 17.1787 80.5693 17.5627 79.9613 17.84C79.3639 18.1173 78.6439 18.256 77.8013 18.256ZM88.467 18C87.507 18 86.7977 17.7813 86.339 17.344C85.891 16.9067 85.667 16.2293 85.667 15.312V7.408H87.843V15.104C87.843 15.4987 87.9337 15.792 88.115 15.984C88.307 16.176 88.6004 16.272 88.995 16.272H91.011V18H88.467ZM83.203 11.152V9.424H91.011V11.152H83.203ZM96.8928 18.192C96.0821 18.192 95.3728 18.0107 94.7648 17.648C94.1568 17.2747 93.6821 16.752 93.3408 16.08C92.9994 15.408 92.8288 14.6187 92.8288 13.712C92.8288 12.7947 92.9994 12.0053 93.3408 11.344C93.6821 10.672 94.1568 10.1547 94.7648 9.792C95.3728 9.41867 96.0821 9.232 96.8928 9.232C97.7034 9.232 98.4128 9.41867 99.0208 9.792C99.6288 10.1547 100.103 10.672 100.445 11.344C100.786 12.0053 100.957 12.7947 100.957 13.712C100.957 14.6187 100.786 15.408 100.445 16.08C100.103 16.752 99.6288 17.2747 99.0208 17.648C98.4128 18.0107 97.7034 18.192 96.8928 18.192ZM96.8928 16.272C97.4688 16.272 97.9114 16.0533 98.2208 15.616C98.5408 15.168 98.7008 14.5333 98.7008 13.712C98.7008 12.88 98.5408 12.2453 98.2208 11.808C97.9114 11.3707 97.4688 11.152 96.8928 11.152C96.3168 11.152 95.8688 11.3707 95.5488 11.808C95.2394 12.2453 95.0848 12.88 95.0848 13.712C95.0848 14.5333 95.2394 15.168 95.5488 15.616C95.8688 16.0533 96.3168 16.272 96.8928 16.272ZM104.887 18V9.424H106.487L106.663 11.664H106.519C106.604 10.9173 106.817 10.3573 107.159 9.984C107.511 9.61067 108.023 9.424 108.695 9.424H110.615V11.2H108.855C108.449 11.2 108.113 11.2693 107.847 11.408C107.58 11.5467 107.383 11.7547 107.255 12.032C107.127 12.3093 107.063 12.656 107.063 13.072V18H104.887ZM102.839 18V16.272H109.671V18H102.839ZM102.839 11.152V9.424H106.183V11.152H102.839ZM113.12 20.4V18.672H114.288C114.566 18.672 114.779 18.6293 114.928 18.544C115.088 18.4693 115.206 18.32 115.28 18.096L115.504 17.456H114.832L111.824 9.424H114.08L116.176 15.376L118.112 9.424H120.368L117.072 18.752C116.87 19.3493 116.555 19.7707 116.128 20.016C115.712 20.272 115.174 20.4 114.512 20.4H113.12Z" fill="black"/>
<path d="M47.329 31.12C46.9624 31.12 46.6357 31.04 46.349 30.88C46.0624 30.7133 45.8424 30.4867 45.689 30.2L45.659 31H44.899V23.9H45.739V26.44C45.8724 26.22 46.079 26.0233 46.359 25.85C46.639 25.67 46.9624 25.58 47.329 25.58C47.7957 25.58 48.199 25.6933 48.539 25.92C48.879 26.1467 49.139 26.4667 49.319 26.88C49.5057 27.2933 49.599 27.7833 49.599 28.35C49.599 28.9167 49.5057 29.4067 49.319 29.82C49.139 30.2333 48.879 30.5533 48.539 30.78C48.199 31.0067 47.7957 31.12 47.329 31.12ZM47.279 30.32C47.7257 30.32 48.0757 30.1433 48.329 29.79C48.589 29.4367 48.719 28.9567 48.719 28.35C48.719 27.7367 48.589 27.2567 48.329 26.91C48.0757 26.5567 47.7324 26.38 47.299 26.38C46.9724 26.38 46.6924 26.46 46.459 26.62C46.2257 26.7733 46.0457 26.9967 45.919 27.29C45.799 27.5833 45.739 27.9367 45.739 28.35C45.739 28.75 45.799 29.1 45.919 29.4C46.0457 29.6933 46.2224 29.92 46.449 30.08C46.6824 30.24 46.959 30.32 47.279 30.32ZM51.3751 32.5V31.76H51.9851C52.1718 31.76 52.3085 31.73 52.3951 31.67C52.4885 31.6167 52.5585 31.5267 52.6051 31.4L52.7951 30.9H52.5051L50.5351 25.7H51.4551L53.0651 30.12L54.5751 25.7H55.4951L53.3451 31.67C53.2451 31.9567 53.0951 32.1667 52.8951 32.3C52.6951 32.4333 52.4185 32.5 52.0651 32.5H51.3751ZM62.3873 31V25.7H63.1573L63.1873 26.88L63.0873 26.86C63.1473 26.4667 63.274 26.1567 63.4673 25.93C63.6673 25.6967 63.9206 25.58 64.2273 25.58C64.5406 25.58 64.7806 25.6933 64.9473 25.92C65.1206 26.1467 65.2273 26.48 65.2673 26.92H65.1673C65.2273 26.5067 65.3606 26.18 65.5673 25.94C65.7806 25.7 66.0473 25.58 66.3673 25.58C66.794 25.58 67.104 25.7267 67.2973 26.02C67.4906 26.3133 67.5873 26.8 67.5873 27.48V31H66.7473V27.6C66.7473 27.1267 66.6973 26.7967 66.5973 26.61C66.4973 26.4167 66.3406 26.32 66.1273 26.32C65.9873 26.32 65.864 26.3667 65.7573 26.46C65.6506 26.5467 65.564 26.6867 65.4973 26.88C65.4373 27.0733 65.4073 27.32 65.4073 27.62V31H64.5673V27.6C64.5673 27.1467 64.5173 26.82 64.4173 26.62C64.324 26.42 64.1673 26.32 63.9473 26.32C63.8073 26.32 63.684 26.3667 63.5773 26.46C63.4706 26.5467 63.384 26.6867 63.3173 26.88C63.2573 27.0733 63.2273 27.32 63.2273 27.62V31H62.3873ZM70.2834 31.12C69.9501 31.12 69.6501 31.06 69.3834 30.94C69.1167 30.82 68.9067 30.6533 68.7534 30.44C68.6001 30.22 68.5234 29.9667 68.5234 29.68C68.5234 29.2267 68.6567 28.8767 68.9234 28.63C69.1967 28.3767 69.6234 28.1933 70.2034 28.08L71.9834 27.72C71.9834 27.2667 71.8801 26.93 71.6734 26.71C71.4734 26.49 71.1834 26.38 70.8034 26.38C70.4367 26.38 70.1501 26.4633 69.9434 26.63C69.7367 26.79 69.5934 27.0233 69.5134 27.33L68.6234 27.26C68.7234 26.76 68.9601 26.3567 69.3334 26.05C69.7134 25.7367 70.2034 25.58 70.8034 25.58C71.4434 25.58 71.9401 25.7733 72.2934 26.16C72.6467 26.54 72.8234 27.0667 72.8234 27.74V29.94C72.8234 30.06 72.8501 30.1433 72.9034 30.19C72.9567 30.2367 73.0367 30.26 73.1434 30.26H73.4834V31C73.4434 31.0067 73.3801 31.01 73.2934 31.01C73.2067 31.0167 73.1234 31.02 73.0434 31.02C72.8167 31.02 72.6234 30.9833 72.4634 30.91C72.3101 30.8367 72.1934 30.72 72.1134 30.56C72.0334 30.3933 71.9901 30.18 71.9834 29.92H72.1434C72.0967 30.1467 71.9834 30.3533 71.8034 30.54C71.6301 30.72 71.4101 30.8633 71.1434 30.97C70.8767 31.07 70.5901 31.12 70.2834 31.12ZM70.3634 30.38C70.7234 30.38 71.0234 30.32 71.2634 30.2C71.5034 30.0733 71.6834 29.9 71.8034 29.68C71.9234 29.4533 71.9834 29.1933 71.9834 28.9V28.44L70.3634 28.76C70.0034 28.8267 69.7534 28.93 69.6134 29.07C69.4734 29.2033 69.4034 29.38 69.4034 29.6C69.4034 29.8467 69.4867 30.04 69.6534 30.18C69.8267 30.3133 70.0634 30.38 70.3634 30.38ZM75.2295 31L74.1795 25.7H75.0995L75.7895 30.12L76.5695 26.44H77.3895L78.1695 30.12L78.8595 25.7H79.7795L78.7395 31H77.6795L76.9795 27.66L76.2795 31H75.2295ZM82.8156 31V25.74H80.9556V25H81.9156C82.1689 25 82.3723 24.9633 82.5256 24.89C82.6856 24.8167 82.7989 24.7 82.8656 24.54C82.9389 24.38 82.9756 24.1667 82.9756 23.9H83.6756V31H82.8156ZM80.5756 31V30.16H85.3756V31H80.5756ZM88.2717 31.12C87.9383 31.12 87.6383 31.06 87.3717 30.94C87.105 30.82 86.895 30.6533 86.7417 30.44C86.5883 30.22 86.5117 29.9667 86.5117 29.68C86.5117 29.2267 86.645 28.8767 86.9117 28.63C87.185 28.3767 87.6117 28.1933 88.1917 28.08L89.9717 27.72C89.9717 27.2667 89.8683 26.93 89.6617 26.71C89.4617 26.49 89.1717 26.38 88.7917 26.38C88.425 26.38 88.1383 26.4633 87.9317 26.63C87.725 26.79 87.5817 27.0233 87.5017 27.33L86.6117 27.26C86.7117 26.76 86.9483 26.3567 87.3217 26.05C87.7017 25.7367 88.1917 25.58 88.7917 25.58C89.4317 25.58 89.9283 25.7733 90.2817 26.16C90.635 26.54 90.8117 27.0667 90.8117 27.74V29.94C90.8117 30.06 90.8383 30.1433 90.8917 30.19C90.945 30.2367 91.025 30.26 91.1317 30.26H91.4717V31C91.4317 31.0067 91.3683 31.01 91.2817 31.01C91.195 31.0167 91.1117 31.02 91.0317 31.02C90.805 31.02 90.6117 30.9833 90.4517 30.91C90.2983 30.8367 90.1817 30.72 90.1017 30.56C90.0217 30.3933 89.9783 30.18 89.9717 29.92H90.1317C90.085 30.1467 89.9717 30.3533 89.7917 30.54C89.6183 30.72 89.3983 30.8633 89.1317 30.97C88.865 31.07 88.5783 31.12 88.2717 31.12ZM88.3517 30.38C88.7117 30.38 89.0117 30.32 89.2517 30.2C89.4917 30.0733 89.6717 29.9 89.7917 29.68C89.9117 29.4533 89.9717 29.1933 89.9717 28.9V28.44L88.3517 28.76C87.9917 28.8267 87.7417 28.93 87.6017 29.07C87.4617 29.2033 87.3917 29.38 87.3917 29.6C87.3917 29.8467 87.475 30.04 87.6417 30.18C87.815 30.3133 88.0517 30.38 88.3517 30.38Z" fill="black"/>
</g>
<defs>
<clipPath id="clip0_365_8">
<rect width="77" height="32" fill="white" transform="translate(43.999 2)"/>
</clipPath>
</defs>
</svg>
